<?xml version="1.0" standalone="no"?>
<!DOCTYPE svg PUBLIC "-//W3C//DTD SVG 20010904//EN"
 "http://www.w3.org/TR/2001/REC-SVG-20010904/DTD/svg10.dtd">
<svg version="1.0" xmlns="http://www.w3.org/2000/svg"
 width="380.000000pt" height="380.000000pt" viewBox="0 0 380.000000 380.000000"
 preserveAspectRatio="xMidYMid meet">
<metadata>
Created by potrace 1.14, written by Peter Selinger 2001-2017
</metadata>
<g transform="translate(0.000000,380.000000) scale(0.100000,-0.100000)"
fill="#000000" stroke="none">
<path d="M585 2132 c-6 -4 -44 -51 -84 -104 l-74 -98 57 -67 c116 -140 130
-155 149 -148 22 9 22 26 -1 51 -51 56 -132 156 -132 163 0 8 98 142 111 151
7 5 12 27 10 48 -1 13 -20 16 -36 4z"/>
<path d="M753 2133 c-17 -6 -16 -18 0 -35 10 -9 39 -13 98 -12 91 2 123 -9
138 -49 10 -28 -5 -74 -29 -87 -10 -6 -59 -10 -108 -10 -60 0 -93 -4 -100 -13
-16 -19 -13 -194 4 -208 26 -22 40 5 38 73 -3 96 -6 94 86 95 86 1 116 13 145
57 25 38 27 74 7 120 -27 60 -66 76 -179 75 -48 0 -94 -3 -100 -6z"/>
<path d="M1128 2123 c-6 -29 63 -133 86 -130 31 3 29 20 -14 85 -39 62 -65 78
-72 45z"/>
<path d="M1320 2026 l-71 -114 3 -98 c3 -91 5 -99 23 -99 18 0 20 8 25 100 l5
100 63 98 c34 53 62 101 62 106 0 7 -23 21 -35 21 -2 0 -36 -51 -75 -114z"/>
<path d="M1523 2124 c-11 -28 15 -37 112 -38 90 -1 98 -3 116 -26 25 -34 24
-66 -6 -95 -22 -23 -32 -25 -120 -25 -114 0 -111 3 -109 -125 1 -89 9 -110 37
-99 14 5 17 21 17 88 l0 82 76 1 c91 1 127 15 154 58 38 61 22 131 -39 172
-30 20 -46 23 -133 23 -80 0 -100 -3 -105 -16z"/>
<path d="M1893 2124 c-11 -30 15 -37 137 -39 140 -1 166 5 150 35 -10 19 -21
20 -146 20 -113 0 -136 -3 -141 -16z"/>
<path d="M2477 2133 c-14 -13 -7 -43 11 -44 9 -1 53 -2 97 -4 104 -3 98 -1
114 -27 22 -36 21 -65 -4 -93 -23 -23 -30 -25 -119 -25 -114 0 -113 1 -111
-122 1 -94 12 -121 39 -99 11 10 15 31 15 80 -1 36 -1 71 0 77 1 7 24 11 59
11 110 1 113 1 153 42 32 32 39 46 39 77 0 51 -32 102 -75 120 -35 14 -205 20
-218 7z"/>
<path d="M2943 2098 c-29 -60 -53 -115 -53 -122 0 -3 -11 -29 -24 -58 -13 -29
-27 -64 -31 -78 -4 -14 -16 -41 -25 -60 -30 -60 -16 -70 98 -70 107 0 134 9
116 37 -9 14 -24 17 -82 16 -40 0 -72 4 -72 9 0 9 59 159 80 203 5 11 15 34
21 50 10 29 13 24 77 -132 37 -89 72 -167 78 -173 11 -11 44 -4 44 10 0 9 -50
138 -120 308 -36 86 -46 102 -65 102 -16 0 -27 -11 -42 -42z"/>
<path d="M3193 2128 c-13 -16 -4 -38 35 -93 30 -43 58 -56 68 -31 6 15 -63
127 -82 133 -6 2 -16 -2 -21 -9z"/>
<path d="M3423 2098 c-14 -24 -38 -61 -51 -83 -14 -22 -34 -52 -44 -68 -15
-22 -19 -46 -20 -121 0 -99 4 -116 28 -116 22 0 29 30 28 124 -1 47 2 86 7 86
5 0 9 4 9 10 0 5 25 48 56 95 31 48 53 92 50 100 -10 27 -35 16 -63 -27z"/>
<path d="M383 2118 c-6 -7 -16 -24 -23 -37 -11 -22 -11 -23 6 -17 15 6 17 5 7
-5 -20 -20 -18 -322 2 -339 11 -9 18 -10 29 -1 10 9 13 52 11 208 -2 190 -7
222 -32 191z"/>
<path d="M2017 2033 c-10 -9 -8 -296 1 -311 13 -20 42 -3 43 27 6 140 0 274
-13 282 -16 11 -23 11 -31 2z"/>
<path d="M935 1840 c-7 -11 40 -103 60 -120 20 -16 47 -1 39 22 -22 71 -80
128 -99 98z"/>
</g>
</svg>
